<?xml version="1.0" encoding="utf-8"?>
<!-- Generator: Adobe Illustrator 15.0.2, SVG Export Plug-In . SVG Version: 6.00 Build 0)  -->
<!DOCTYPE svg PUBLIC "-//W3C//DTD SVG 1.1//EN" "http://www.w3.org/Graphics/SVG/1.1/DTD/svg11.dtd">
<svg version="1.1" id="Selected_Items" xmlns="http://www.w3.org/2000/svg" xmlns:xlink="http://www.w3.org/1999/xlink" x="0px"
	 y="0px" width="150px" height="50px" viewBox="0 0 150 50" enable-background="new 0 0 150 50" xml:space="preserve">
<symbol  id="assets_x2F_exclamation_x5F_Point" viewBox="-5.06 -23.799 10.194 47.499">
	<g id="Layer_1_2_">
		<path fill-rule="evenodd" clip-rule="evenodd" fill="#0E386C" d="M4.75,11.321C4.076,2.966,2.796-4.48,0.91-11.017h-1.618
			C-2.663-4.48-3.976,2.966-4.649,11.321c-0.674,7.883,0.775,11.926,4.346,12.128c0.202,0,0.438,0,0.708,0
			C3.907,23.18,5.356,19.138,4.75,11.321z M0.101-23.549c-0.809,0-1.55,0.303-2.223,0.909c-0.607,0.607-0.91,1.349-0.91,2.224
			c0,0.876,0.303,1.651,0.91,2.324c0.673,0.607,1.415,0.91,2.223,0.91c0.876,0,1.651-0.303,2.325-0.91
			c0.606-0.673,0.909-1.448,0.909-2.324c0-0.875-0.303-1.617-0.909-2.224C1.751-23.246,0.977-23.549,0.101-23.549z"/>
		
			<path fill-rule="evenodd" clip-rule="evenodd" fill="none" stroke="#000000" stroke-width="0.5" stroke-linecap="round" stroke-linejoin="round" stroke-miterlimit="3" stroke-opacity="0.9882" d="
			M4.75,11.321C4.076,2.966,2.796-4.48,0.91-11.017h-1.618C-2.663-4.48-3.976,2.966-4.649,11.321
			c-0.674,7.883,0.775,11.926,4.346,12.128c0.202,0,0.438,0,0.708,0C3.907,23.18,5.356,19.138,4.75,11.321z M0.101-23.549
			c-0.809,0-1.55,0.303-2.223,0.909c-0.607,0.607-0.91,1.349-0.91,2.224c0,0.876,0.303,1.651,0.91,2.324
			c0.673,0.607,1.415,0.91,2.223,0.91c0.876,0,1.651-0.303,2.325-0.91c0.606-0.673,0.909-1.448,0.909-2.324
			c0-0.875-0.303-1.617-0.909-2.224C1.751-23.246,0.977-23.549,0.101-23.549z"/>
	</g>
</symbol>
<use xlink:href="#assets_x2F_exclamation_x5F_Point"  width="10.194" height="47.499" id="_x5F_exclamation_x5F_Point" x="-5.06" y="-23.799" transform="matrix(1 0 0 -1 40.7998 24.6499)" overflow="visible"/>
</svg>
