<?xml version="1.0" encoding="UTF-8" standalone="no"?>
<!-- Created with Inkscape (http://www.inkscape.org/) -->

<svg
   xmlns:dc="http://purl.org/dc/elements/1.1/"
   xmlns:cc="http://creativecommons.org/ns#"
   xmlns:rdf="http://www.w3.org/1999/02/22-rdf-syntax-ns#"
   xmlns:svg="http://www.w3.org/2000/svg"
   xmlns="http://www.w3.org/2000/svg"
   version="1.1"
   width="17.948675"
   height="17.601166"
   id="svg2">
  <defs
     id="defs4" />
  <metadata
     id="metadata7">
    <rdf:RDF>
      <cc:Work
         rdf:about="">
        <dc:format>image/svg+xml</dc:format>
        <dc:type
           rdf:resource="http://purl.org/dc/dcmitype/StillImage" />
        <dc:title></dc:title>
      </cc:Work>
    </rdf:RDF>
  </metadata>
  <g
     transform="translate(-16.105208,-292.08892)"
     id="layer1">
    <path
       d="m 7.3331246,256.59514 c 0.2707922,0.26352 0.6090053,0.51898 0.8370467,0.81911 0.3212422,0.42279 0.5697464,0.9418 0.8172432,1.4005 0.9695423,1.86485 2.0085555,3.69056 2.9449055,5.57282 0.406148,0.71864 0.541366,1.53986 0.831619,2.30317 -0.879145,0.5744 -1.71147,1.2278 -2.637435,1.7232 -0.08201,0.0439 -0.11633,-0.14528 -0.1702558,-0.22106 -0.1079175,-0.15165 -0.3133599,-0.45125 -0.3851481,-0.60947 -0.061607,-0.13577 -0.1008523,-0.28063 -0.1512785,-0.42094 -0.162158,-0.96923 -0.2330518,-1.98255 -0.081866,-2.95999 0.240567,-1.5553 0.635472,-2.52844 1.1979874,-4.05545 0.304076,-0.82545 0.633478,-1.64135 0.950217,-2.46202 1.122295,-2.80966 2.450213,-5.53915 3.967956,-8.15671 0.605157,-1.04367 0.846511,-1.3861 1.477392,-2.34796 0.421093,-0.66807 0.92249,-1.26983 1.461331,-1.8431 0,0 2.644407,-1.09109 2.644407,-1.09109 l 0,0 c -0.166284,0.14929 -0.340511,0.29018 -0.498851,0.44787 -0.532255,0.53007 -0.774865,0.86581 -1.264425,1.46854 -0.755915,1.00727 -1.029809,1.34077 -1.748697,2.44582 -1.692963,2.60236 -3.141243,5.36266 -4.273819,8.25474 -0.284533,0.80101 -0.605112,1.59012 -0.853601,2.40303 -0.560253,1.83282 -1.013735,3.89487 -0.598654,5.81359 0.0466,0.21542 0.134744,0.41971 0.202116,0.62957 0.168665,0.31256 0.148894,0.30973 0.338433,0.55798 0.04209,0.0551 0.223739,0.28196 0.264241,0.28233 0.03763,3.5e-4 -0.0084,-0.12484 -0.04061,-0.10534 -0.869823,0.52661 -1.700114,1.11592 -2.550172,1.67388 0.06116,-0.25767 -0.01193,-0.52961 -0.06741,-0.78306 -0.1166216,-0.53282 -0.2702342,-1.05799 -0.4620663,-1.5686 -0.7591589,-1.94886 -1.6412427,-3.85859 -2.8309723,-5.58703 -0.5641626,-0.72452 -1.1180245,-1.45515 -1.935341,-1.90952 0,0 2.6157093,-1.67481 2.6157093,-1.67481 z"
       id="path3773"
       style="color:#000000;fill:#d40000;fill-opacity:1;fill-rule:nonzero;stroke:#000000;stroke-width:1.08800006;stroke-linecap:square;stroke-linejoin:round;stroke-miterlimit:5.5999999;stroke-opacity:0;stroke-dasharray:none;stroke-dashoffset:0;marker:none;visibility:visible;display:inline;overflow:visible;enable-background:accumulate" />
    <path
       d="m 19.584061,300.01938 c 0.612866,0.46216 1.045176,1.0926 1.454974,1.73111 0.6326,1.01536 1.059606,2.07695 1.387336,3.22153 0.125855,0.98149 0.216439,1.96878 0.468214,2.92818 0.01432,0.0258 0.02091,0.0968 0.04295,0.0774 0.02849,-0.0253 0.03576,-0.12194 -0.0014,-0.11412 -1.000758,0.21251 -1.972731,0.55143 -2.97703,0.74652 -0.06451,0.0125 0.05178,-0.12092 0.07436,-0.18267 0.08022,-0.22021 0.19441,-0.58735 0.259883,-0.79214 0.08523,-0.24118 0.163526,-0.48493 0.255684,-0.72354 0.22367,-0.57921 0.699196,-1.697 0.94738,-2.23557 0.347502,-0.75406 0.878404,-1.84042 1.321367,-2.53633 0.323019,-0.50749 0.693656,-0.98303 1.04048,-1.47454 1.92529,-2.54051 4.070349,-4.91118 6.355096,-7.13203 0.178855,-0.161 0.357704,-0.322 0.536558,-0.48301 0,0 2.767065,-0.41366 2.767065,-0.41366 l 0,0 c -0.219317,0.16285 -0.438634,0.3257 -0.657951,0.48855 -0.278356,0.2306 -0.562344,0.45454 -0.835062,0.69176 -2.193719,1.90822 -4.182917,4.05756 -5.861129,6.43369 -0.303158,0.47608 -0.622408,0.9423 -0.909484,1.42827 -0.974385,1.64945 -1.750366,3.44626 -2.091063,5.33743 -0.05936,0.32582 -0.08786,0.4611 -0.131757,0.76675 -0.0093,0.065 0.03778,0.17324 -0.024,0.1959 -0.534913,0.19623 -3.119544,2.00592 -3.073753,0.67475 0.01713,-0.9793 -0.101474,-1.969 -0.322122,-2.92133 -0.284236,-1.10958 -0.677819,-2.18009 -1.328737,-3.13349 -0.462299,-0.60187 -0.938561,-1.21018 -1.635835,-1.55296 0,0 2.938071,-1.0264 2.938071,-1.0264 z"
       id="path3775"
       style="color:#000000;fill:#00ff00;fill-opacity:1;fill-rule:nonzero;stroke:#000000;stroke-width:1.08800006;stroke-linecap:square;stroke-linejoin:round;stroke-miterlimit:5.5999999;stroke-opacity:0;stroke-dasharray:none;stroke-dashoffset:0;marker:none;visibility:visible;display:inline;overflow:visible;enable-background:accumulate" />
  </g>
</svg>
