<?xml version="1.0" encoding="UTF-8" standalone="no"?>
<!-- Created with Inkscape (http://www.inkscape.org/) -->

<svg
   xmlns:dc="http://purl.org/dc/elements/1.1/"
   xmlns:cc="http://creativecommons.org/ns#"
   xmlns:rdf="http://www.w3.org/1999/02/22-rdf-syntax-ns#"
   xmlns:svg="http://www.w3.org/2000/svg"
   xmlns="http://www.w3.org/2000/svg"
   xmlns:sodipodi="http://sodipodi.sourceforge.net/DTD/sodipodi-0.dtd"
   xmlns:inkscape="http://www.inkscape.org/namespaces/inkscape"
   version="1.1"
   width="13.307908"
   height="17.002672"
   id="svg2"
   inkscape:version="0.48.0 r9654"
   sodipodi:docname="cross.svg">
  <sodipodi:namedview
     pagecolor="#ffffff"
     bordercolor="#666666"
     borderopacity="1"
     objecttolerance="10"
     gridtolerance="10"
     guidetolerance="10"
     inkscape:pageopacity="0"
     inkscape:pageshadow="2"
     inkscape:window-width="1280"
     inkscape:window-height="748"
     id="namedview9"
     showgrid="false"
     inkscape:zoom="3.3698335"
     inkscape:cx="-53.579313"
     inkscape:cy="-9.259876"
     inkscape:window-x="-8"
     inkscape:window-y="-8"
     inkscape:window-maximized="1"
     inkscape:current-layer="layer1"
     fit-margin-top="0"
     fit-margin-left="0"
     fit-margin-right="0"
     fit-margin-bottom="0" />
  <defs
     id="defs4" />
  <metadata
     id="metadata7">
    <rdf:RDF>
      <cc:Work
         rdf:about="">
        <dc:format>image/svg+xml</dc:format>
        <dc:type
           rdf:resource="http://purl.org/dc/dcmitype/StillImage" />
        <dc:title />
      </cc:Work>
    </rdf:RDF>
  </metadata>
  <g
     transform="translate(-17.444699,-291.44165)"
     id="layer1">
    <path
       d="m -0.12437016,17.585939 c 0.06411253,-0.373311 0.10919011,-0.758411 0.25374441,-1.112498 0.10667992,-0.261313 0.2393049,-0.511393 0.3677851,-0.762706 C 0.96337781,14.798792 1.0401679,14.709193 1.5904718,13.794524 1.8501039,13.41652 2.0968066,13.029303 2.369368,12.660514 2.6869861,12.23076 3.0241334,11.815694 3.3600999,11.400127 4.3376225,10.191001 5.3623645,9.0263143 6.4558533,7.9206118 6.7835331,7.589272 7.1219484,7.268724 7.4549959,6.9427801 9.3680738,5.1688927 11.526031,3.6901363 13.698402,2.2568282 c 1.561069,-1.0745286 3.219273,-1.99011398 4.857248,-2.94009903 0,0 -2.267405,1.83510303 -2.267405,1.83510303 l 0,0 C 20.77165,-1.4603705 17.011257,0.70301796 16.127772,1.3091172 13.908599,2.7401394 11.707099,4.2138549 9.7497032,5.9971625 8.9195937,6.7861403 8.4480631,7.2141872 7.6539465,8.0526751 6.2882493,9.4946808 5.0163234,11.039245 3.9753513,12.733934 3.516338,13.548299 3.3861949,13.725563 3.0289777,14.549241 c -0.2221778,0.512302 -0.4276454,1.05547 -0.3792262,1.623213 0,0 -2.77412166,1.413485 -2.77412166,1.413485 z"
       transform="translate(16.105208,292.08892)"
       id="path3777"
       style="color:#000000;fill:#ff0000;fill-opacity:1;fill-rule:nonzero;stroke:#000000;stroke-width:1.08800006;stroke-linecap:square;stroke-linejoin:round;stroke-miterlimit:5.5999999;stroke-opacity:0;stroke-dasharray:none;stroke-dashoffset:0;marker:none;visibility:visible;display:inline;overflow:visible;enable-background:accumulate"
       inkscape:connector-curvature="0" />
    <path
       d="m 4.5347745,-0.09027917 c 0.026229,0.05418059 0.04945,0.10992401 0.078688,0.16254177 0.1683693,0.30299863 0.3746342,0.58714594 0.5536269,0.8836866 0.2330218,0.3860516 0.458786,0.7764523 0.6917419,1.1625437 1.1338758,2.3543557 2.5772724,4.5428526 4.013981,6.7200219 1.0076757,1.5792412 2.1706297,3.0455132 3.3665317,4.4837692 0.280797,0.315819 0.563291,0.629058 0.861193,0.928724 0,0 -2.573638,1.550192 -2.573638,1.550192 l 0,0 C 11.277481,15.463379 11.039983,15.1174 10.792289,14.778274 10.522708,14.397368 10.246262,14.021306 9.9800968,13.638006 9.1805225,12.486552 8.4437339,11.291332 7.6662335,10.125153 6.9703431,8.9895892 6.2645841,7.8603063 5.5602445,6.7299625 5.0141712,5.8536088 4.6696202,5.282866 4.0850591,4.4384572 3.8736383,4.1330561 3.6481961,3.8376035 3.4297646,3.5371766 2.9495315,2.8420272 2.4510177,2.1582993 1.8693026,1.5431241 c 0,0 2.6654719,-1.63340327 2.6654719,-1.63340327 z"
       transform="translate(16.105208,292.08892)"
       id="path3783"
       style="color:#000000;fill:#ff0000;fill-opacity:1;fill-rule:nonzero;stroke:#000000;stroke-width:1.08800006;stroke-linecap:square;stroke-linejoin:round;stroke-miterlimit:5.5999999;stroke-opacity:0;stroke-dasharray:none;stroke-dashoffset:0;marker:none;visibility:visible;display:inline;overflow:visible;enable-background:accumulate"
       inkscape:connector-curvature="0" />
  </g>
</svg>
