<?xml version="1.0" encoding="UTF-8" standalone="no"?>
<!-- Created with Inkscape (http://www.inkscape.org/) -->

<svg
   xmlns:dc="http://purl.org/dc/elements/1.1/"
   xmlns:cc="http://creativecommons.org/ns#"
   xmlns:rdf="http://www.w3.org/1999/02/22-rdf-syntax-ns#"
   xmlns:svg="http://www.w3.org/2000/svg"
   xmlns="http://www.w3.org/2000/svg"
   xmlns:xlink="http://www.w3.org/1999/xlink"
   xmlns:sodipodi="http://sodipodi.sourceforge.net/DTD/sodipodi-0.dtd"
   xmlns:inkscape="http://www.inkscape.org/namespaces/inkscape"
   width="76.676247"
   height="76.676247"
   id="svg15167"
   version="1.1"
   inkscape:version="0.47 r22583"
   sodipodi:docname="anxious.svg">
  <defs
     id="defs15169">
    <inkscape:perspective
       sodipodi:type="inkscape:persp3d"
       inkscape:vp_x="0 : 526.18109 : 1"
       inkscape:vp_y="0 : 1000 : 0"
       inkscape:vp_z="744.09448 : 526.18109 : 1"
       inkscape:persp3d-origin="372.04724 : 350.78739 : 1"
       id="perspective15175" />
    <inkscape:perspective
       id="perspective15072"
       inkscape:persp3d-origin="0.5 : 0.33333333 : 1"
       inkscape:vp_z="1 : 0.5 : 1"
       inkscape:vp_y="0 : 1000 : 0"
       inkscape:vp_x="0 : 0.5 : 1"
       sodipodi:type="inkscape:persp3d" />
    <clipPath
       id="clipPath4134"
       clipPathUnits="userSpaceOnUse">
      <path
         id="path4136"
         d="M 0,792 612,792 612,0 0,0 0,792 z" />
    </clipPath>
    <linearGradient
       inkscape:collect="always"
       xlink:href="#linearGradient4120"
       id="linearGradient15060"
       gradientUnits="userSpaceOnUse"
       gradientTransform="matrix(5.4450226,-7.441452,-7.441452,-5.4450226,48.137695,736.24756)"
       spreadMethod="pad"
       x1="0"
       y1="0"
       x2="1"
       y2="0" />
    <linearGradient
       id="linearGradient4120"
       spreadMethod="pad"
       gradientTransform="matrix(5.4450226,-7.441452,-7.441452,-5.4450226,48.137695,736.24756)"
       gradientUnits="userSpaceOnUse"
       y2="0"
       x2="1"
       y1="0"
       x1="0">
      <stop
         id="stop4122"
         offset="0"
         style="stop-opacity:1;stop-color:#d1ea7d" />
      <stop
         id="stop4124"
         offset="0.994507"
         style="stop-opacity:1;stop-color:#1d6b45" />
      <stop
         id="stop4126"
         offset="1"
         style="stop-opacity:1;stop-color:#1d6b45" />
    </linearGradient>
    <clipPath
       id="clipPath4100"
       clipPathUnits="userSpaceOnUse">
      <path
         id="path4102"
         d="M 0,792 612,792 612,0 0,0 0,792 z" />
    </clipPath>
    <radialGradient
       inkscape:collect="always"
       xlink:href="#radialGradient4086"
       id="radialGradient15062"
       gradientUnits="userSpaceOnUse"
       gradientTransform="matrix(10.510544,0,0,-9.0436707,60.640625,729.87158)"
       spreadMethod="pad"
       cx="0"
       cy="0"
       fx="0"
       fy="0"
       r="1" />
    <radialGradient
       id="radialGradient4086"
       spreadMethod="pad"
       gradientTransform="matrix(10.510544,0,0,-9.0436707,60.640625,729.87158)"
       gradientUnits="userSpaceOnUse"
       r="1"
       cy="0"
       cx="0"
       fy="0"
       fx="0">
      <stop
         id="stop4088"
         offset="0"
         style="stop-opacity:1;stop-color:#f9b074" />
      <stop
         id="stop4090"
         offset="0.5"
         style="stop-opacity:1;stop-color:#f03f35" />
      <stop
         id="stop4092"
         offset="1"
         style="stop-opacity:1;stop-color:#ce202a" />
    </radialGradient>
    <clipPath
       id="clipPath3992"
       clipPathUnits="userSpaceOnUse">
      <path
         id="path3994"
         d="M 0,792 612,792 612,0 0,0 0,792 z" />
    </clipPath>
  </defs>
  <sodipodi:namedview
     id="base"
     pagecolor="#ffffff"
     bordercolor="#666666"
     borderopacity="1.0"
     inkscape:pageopacity="0.0"
     inkscape:pageshadow="2"
     inkscape:zoom="0.35"
     inkscape:cx="375"
     inkscape:cy="-165.71432"
     inkscape:document-units="px"
     inkscape:current-layer="layer1"
     showgrid="false"
     inkscape:window-width="550"
     inkscape:window-height="481"
     inkscape:window-x="2405"
     inkscape:window-y="341"
     inkscape:window-maximized="0" />
  <metadata
     id="metadata15172">
    <rdf:RDF>
      <cc:Work
         rdf:about="">
        <dc:format>image/svg+xml</dc:format>
        <dc:type
           rdf:resource="http://purl.org/dc/dcmitype/StillImage" />
        <dc:title></dc:title>
      </cc:Work>
    </rdf:RDF>
  </metadata>
  <g
     inkscape:label="Layer 1"
     inkscape:groupmode="layer"
     id="layer1"
     transform="translate(0,-975.6859)">
    <g
       id="g3988"
       transform="matrix(1.25,0,0,-1.25,-28.385,1901.3009)">
      <g
         id="g3990"
         clip-path="url(#clipPath3992)">
        <path
           d="m 84.049,679.151 -61.341,0 0,61.341 61.341,0 0,-61.341 z"
           style="fill:#c9e32e;fill-opacity:1;fill-rule:nonzero;stroke:none"
           id="path3996" />
        <g
           id="g3998"
           transform="translate(78.1304,703.3643)">
          <path
             d="m 0,0 c 0,-8.321 -10.479,-15.066 -23.407,-15.066 -12.926,0 -23.406,6.745 -23.406,15.066 0,8.321 10.48,15.066 23.406,15.066 C -10.479,15.066 0,8.321 0,0"
             style="fill:#ececec;fill-opacity:1;fill-rule:nonzero;stroke:none"
             id="path4000" />
        </g>
        <g
           id="g4002"
           transform="translate(78.1304,703.3643)">
          <path
             d="m 0,0 c 0,-8.321 -10.479,-15.066 -23.407,-15.066 -12.926,0 -23.406,6.745 -23.406,15.066 0,8.321 10.48,15.066 23.406,15.066 C -10.479,15.066 0,8.321 0,0 z"
             style="fill:none;stroke:#4a4a4c;stroke-width:2.00200009;stroke-linecap:butt;stroke-linejoin:miter;stroke-miterlimit:4;stroke-opacity:1;stroke-dasharray:none"
             id="path4004" />
        </g>
        <g
           id="g4006"
           transform="translate(55.5308,706.8623)">
          <path
             d="m 0,0 c 0,-2.823 -2.529,-5.112 -5.65,-5.112 -3.12,0 -5.649,2.289 -5.649,5.112 0,2.823 2.529,5.112 5.649,5.112 C -2.529,5.112 0,2.823 0,0 z"
             style="fill:none;stroke:#4a4a4c;stroke-width:2.00200009;stroke-linecap:butt;stroke-linejoin:miter;stroke-miterlimit:4;stroke-opacity:1;stroke-dasharray:none"
             id="path4008" />
        </g>
        <g
           id="g4010"
           transform="translate(66.2925,707.1313)">
          <path
             d="m 0,0 c 0,-2.972 -2.529,-5.381 -5.65,-5.381 -3.12,0 -5.649,2.409 -5.649,5.381 0,2.972 2.529,5.381 5.649,5.381 C -2.529,5.381 0,2.972 0,0 z"
             style="fill:none;stroke:#4a4a4c;stroke-width:2.00200009;stroke-linecap:butt;stroke-linejoin:miter;stroke-miterlimit:4;stroke-opacity:1;stroke-dasharray:none"
             id="path4012" />
        </g>
        <g
           id="g4014"
           transform="translate(60.625,712.5249)">
          <path
             d="m 0,0 c -2.77,-0.144 -4.969,-2.165 -5.317,-4.695 0.735,-0.817 1.824,-1.32 3.029,-1.258 2.085,0.109 3.691,1.838 3.586,3.861 C 1.256,-1.295 0.95,-0.577 0.473,0.002 0.316,0.006 0.159,0.008 0,0"
             style="fill:#100f0d;fill-opacity:1;fill-rule:nonzero;stroke:none"
             id="path4016" />
        </g>
        <g
           id="g4018"
           transform="translate(60.625,712.5249)">
          <path
             d="m 0,0 c -2.77,-0.144 -4.969,-2.165 -5.317,-4.695 0.735,-0.817 1.824,-1.32 3.029,-1.258 2.085,0.109 3.691,1.838 3.586,3.861 C 1.256,-1.295 0.95,-0.577 0.473,0.002 0.316,0.006 0.159,0.008 0,0 z"
             style="fill:none;stroke:#4a4a4c;stroke-width:0.667;stroke-linecap:butt;stroke-linejoin:miter;stroke-miterlimit:4;stroke-opacity:1;stroke-dasharray:none"
             id="path4020" />
        </g>
        <g
           id="g4022"
           transform="translate(55.417,707.6641)">
          <path
             d="m 0,0 c -0.524,2.332 -2.803,4.087 -5.536,4.087 -0.263,0 -0.52,-0.022 -0.773,-0.053 C -6.7,3.457 -6.931,2.768 -6.931,2.025 c 0,-2.026 1.693,-3.67 3.781,-3.67 1.316,0 2.473,0.655 3.15,1.645"
             style="fill:#100f0d;fill-opacity:1;fill-rule:nonzero;stroke:none"
             id="path4024" />
        </g>
        <g
           id="g4026"
           transform="translate(55.417,707.6641)">
          <path
             d="m 0,0 c -0.524,2.332 -2.803,4.087 -5.536,4.087 -0.263,0 -0.52,-0.022 -0.773,-0.053 C -6.7,3.457 -6.931,2.768 -6.931,2.025 c 0,-2.026 1.693,-3.67 3.781,-3.67 1.316,0 2.473,0.655 3.15,1.645 z"
             style="fill:none;stroke:#4a4a4c;stroke-width:0.667;stroke-linecap:butt;stroke-linejoin:miter;stroke-miterlimit:4;stroke-opacity:1;stroke-dasharray:none"
             id="path4028" />
        </g>
        <g
           id="g4030"
           transform="translate(40.7017,708.4658)">
          <path
             d="M 0,0 7.117,7.339"
             style="fill:none;stroke:#4a4a4c;stroke-width:1.33399999;stroke-linecap:butt;stroke-linejoin:miter;stroke-miterlimit:4;stroke-opacity:1;stroke-dasharray:none"
             id="path4032" />
        </g>
        <g
           id="g4034"
           transform="translate(63.6094,715.3604)">
          <path
             d="M 0,0 6.672,-7.117"
             style="fill:none;stroke:#4a4a4c;stroke-width:1.33399999;stroke-linecap:butt;stroke-linejoin:miter;stroke-miterlimit:4;stroke-opacity:1;stroke-dasharray:none"
             id="path4036" />
        </g>
        <g
           id="g4038"
           transform="translate(38.9121,709.6694)">
          <path
             d="M 0,0 C -1.779,-1.871 -1.272,-5.236 1.133,-7.522"
             style="fill:none;stroke:#4a4a4c;stroke-width:1.33399999;stroke-linecap:butt;stroke-linejoin:miter;stroke-miterlimit:4;stroke-opacity:1;stroke-dasharray:none"
             id="path4040" />
        </g>
        <g
           id="g4042"
           transform="translate(35.1313,708.5571)">
          <path
             d="M 0,0 C -1.779,-1.871 -1.272,-5.235 1.133,-7.522"
             style="fill:none;stroke:#4a4a4c;stroke-width:1.33399999;stroke-linecap:butt;stroke-linejoin:miter;stroke-miterlimit:4;stroke-opacity:1;stroke-dasharray:none"
             id="path4044" />
        </g>
        <g
           id="g4046"
           transform="translate(68.0713,701.8745)">
          <path
             d="M 0,0 C 2.808,1.568 3.697,5.313 1.988,8.37"
             style="fill:none;stroke:#4a4a4c;stroke-width:1.33399999;stroke-linecap:butt;stroke-linejoin:miter;stroke-miterlimit:4;stroke-opacity:1;stroke-dasharray:none"
             id="path4048" />
        </g>
        <g
           id="g4050"
           transform="translate(71.4072,700.7627)">
          <path
             d="M 0,0 C 2.808,1.568 3.697,5.313 1.988,8.37"
             style="fill:none;stroke:#4a4a4c;stroke-width:1.33399999;stroke-linecap:butt;stroke-linejoin:miter;stroke-miterlimit:4;stroke-opacity:1;stroke-dasharray:none"
             id="path4052" />
        </g>
        <g
           id="g4054"
           transform="translate(44.9272,694.6768)">
          <path
             d="m 0,0 c 1.82,-0.893 5.179,1.263 6.895,1.84 3.178,1.069 7.588,2.269 10.739,0.378 2.816,-1.69 0.984,-4.272 -1.615,-4.936 C 10.763,-4.059 5.304,0.175 0.89,-0.223"
             style="fill:none;stroke:#4a4a4c;stroke-width:1.33399999;stroke-linecap:butt;stroke-linejoin:miter;stroke-miterlimit:4;stroke-opacity:1;stroke-dasharray:none"
             id="path4056" />
        </g>
        <g
           id="g4058"
           transform="translate(48.4858,694.8989)">
          <path
             d="M 0,0 14.679,-0.222"
             style="fill:none;stroke:#4a4a4c;stroke-width:0.667;stroke-linecap:butt;stroke-linejoin:miter;stroke-miterlimit:4;stroke-opacity:1;stroke-dasharray:none"
             id="path4060" />
        </g>
        <g
           id="g4062"
           transform="translate(60.9404,697.123)">
          <path
             d="M 0,0 -1.112,-5.338"
             style="fill:none;stroke:#4a4a4c;stroke-width:0.667;stroke-linecap:butt;stroke-linejoin:miter;stroke-miterlimit:4;stroke-opacity:1;stroke-dasharray:none"
             id="path4064" />
        </g>
        <g
           id="g4066"
           transform="translate(57.1597,697.7905)">
          <path
             d="M 0,0 -0.445,-5.783"
             style="fill:none;stroke:#4a4a4c;stroke-width:0.667;stroke-linecap:butt;stroke-linejoin:miter;stroke-miterlimit:4;stroke-opacity:1;stroke-dasharray:none"
             id="path4068" />
        </g>
        <g
           id="g4070"
           transform="translate(53.3784,696.6782)">
          <path
             d="M 0,0 0.445,-3.336"
             style="fill:none;stroke:#4a4a4c;stroke-width:0.667;stroke-linecap:butt;stroke-linejoin:miter;stroke-miterlimit:4;stroke-opacity:1;stroke-dasharray:none"
             id="path4072" />
        </g>
      </g>
    </g>
    <g
       id="g4074"
       transform="matrix(1.25,0,0,-1.25,-28.385,1901.3009)">
      <g
         id="g4076">
        <g
           id="g4082">
          <g
             id="g4084">
            <path
               d="m 57.119,732.607 c -2.199,-0.248 -3.919,-1.84 -4.093,-2.006 l 0,0 c -0.039,0.161 -1.11,1.468 -3.144,1.669 l 0,0 c -3.176,0.313 -7.667,-1.135 -5.479,-5.891 l 0,0 c 5.153,-11.199 9.643,-4.569 9.643,-4.569 l 0,0 c 0,0 3.981,-6.542 8.16,3.558 l 0,0 c 2.231,5.395 -0.997,7.291 -4.174,7.291 l 0,0 c -0.307,0 -0.612,-0.018 -0.913,-0.052"
               style="fill:url(#radialGradient15062);stroke:none"
               id="path4094" />
          </g>
        </g>
      </g>
    </g>
    <g
       id="g4096"
       transform="matrix(1.25,0,0,-1.25,-28.385,1901.3009)">
      <g
         id="g4098"
         clip-path="url(#clipPath4100)">
        <g
           id="g4104"
           transform="translate(57.1196,732.6069)">
          <path
             d="m 0,0 c 3.416,0.384 7.533,-1.325 5.086,-7.238 -4.178,-10.101 -8.16,-3.559 -8.16,-3.559 0,0 -4.49,-6.63 -9.642,4.569 -2.188,4.756 2.303,6.204 5.478,5.891 2.218,-0.219 3.291,-1.752 3.13,-1.683 0,0 1.788,1.759 4.108,2.02 z"
             style="fill:none;stroke:#713718;stroke-width:1.33399999;stroke-linecap:butt;stroke-linejoin:miter;stroke-miterlimit:4;stroke-opacity:1;stroke-dasharray:none"
             id="path4106" />
        </g>
      </g>
    </g>
    <g
       id="g4108"
       transform="matrix(1.25,0,0,-1.25,-28.385,1901.3009)">
      <g
         id="g4110">
        <g
           id="g4116">
          <g
             id="g4118">
            <path
               d="m 46.57,734.753 c 1.219,-0.727 4.864,-5.984 6.636,-4.166 l 0,0 0,0.168 c 1.036,2.722 -1.799,4.307 -4.594,4.307 l 0,0 c -0.704,0 -1.405,-0.101 -2.042,-0.309"
               style="fill:url(#linearGradient15060);stroke:none"
               id="path4128" />
          </g>
        </g>
      </g>
    </g>
    <g
       id="g4130"
       transform="matrix(1.25,0,0,-1.25,-28.385,1901.3009)">
      <g
         id="g4132"
         clip-path="url(#clipPath4134)">
        <g
           id="g4138"
           transform="translate(53.2065,730.7549)">
          <path
             d="M 0,0 C 1.297,3.409 -3.474,5.033 -6.636,3.998 -5.417,3.271 -1.772,-1.986 0,-0.168"
             style="fill:none;stroke:#1d6434;stroke-width:1.33399999;stroke-linecap:butt;stroke-linejoin:miter;stroke-miterlimit:4;stroke-opacity:1;stroke-dasharray:none"
             id="path4140" />
        </g>
        <g
           id="g4142"
           transform="translate(68.9473,720.9209)">
          <path
             d="M 0,0 C 4.029,-0.426 8.11,-0.555 9.786,-4.893"
             style="fill:none;stroke:#4a4a4c;stroke-width:1.33399999;stroke-linecap:butt;stroke-linejoin:miter;stroke-miterlimit:4;stroke-opacity:1;stroke-dasharray:none"
             id="path4144" />
        </g>
        <g
           id="g4146"
           transform="translate(71.6162,725.3687)">
          <path
             d="M 0,0 C 2.476,-0.43 6.12,-0.958 6.227,-4.003"
             style="fill:none;stroke:#4a4a4c;stroke-width:1.33399999;stroke-linecap:butt;stroke-linejoin:miter;stroke-miterlimit:4;stroke-opacity:1;stroke-dasharray:none"
             id="path4148" />
        </g>
        <g
           id="g4150"
           transform="translate(29.8037,714.6934)">
          <path
             d="M 0,0 C 0.646,3.28 5.557,7.255 8.896,7.117"
             style="fill:none;stroke:#4a4a4c;stroke-width:1.33399999;stroke-linecap:butt;stroke-linejoin:miter;stroke-miterlimit:4;stroke-opacity:1;stroke-dasharray:none"
             id="path4152" />
        </g>
        <g
           id="g4154"
           transform="translate(28.0249,720.4761)">
          <path
             d="M 0,0 C 1.291,2.434 4.046,4.613 6.672,5.338"
             style="fill:none;stroke:#4a4a4c;stroke-width:1.33399999;stroke-linecap:butt;stroke-linejoin:miter;stroke-miterlimit:4;stroke-opacity:1;stroke-dasharray:none"
             id="path4156" />
        </g>
        <g
           id="g4158"
           transform="translate(28.4692,694.0098)">
          <path
             d="M 0,0 C 2.321,-3.252 5.679,-6.564 9.786,-7.117"
             style="fill:none;stroke:#4a4a4c;stroke-width:1.33399999;stroke-linecap:butt;stroke-linejoin:miter;stroke-miterlimit:4;stroke-opacity:1;stroke-dasharray:none"
             id="path4160" />
        </g>
        <g
           id="g4162"
           transform="translate(27.1348,689.5615)">
          <path
             d="M 0,0 C 0.877,-2.986 4.342,-4.398 7.118,-4.893"
             style="fill:none;stroke:#4a4a4c;stroke-width:1.33399999;stroke-linecap:butt;stroke-linejoin:miter;stroke-miterlimit:4;stroke-opacity:1;stroke-dasharray:none"
             id="path4164" />
        </g>
        <g
           id="g4166"
           transform="translate(64.499,685.5581)">
          <path
             d="M 0,0 C 3.712,-1.603 8.79,1.839 11.121,4.448"
             style="fill:none;stroke:#4a4a4c;stroke-width:1.33399999;stroke-linecap:butt;stroke-linejoin:miter;stroke-miterlimit:4;stroke-opacity:1;stroke-dasharray:none"
             id="path4168" />
        </g>
        <g
           id="g4170"
           transform="translate(70.7266,682.4448)">
          <path
             d="M 0,0 C 1.509,-1.507 3.61,-0.531 5.338,0.889"
             style="fill:none;stroke:#4a4a4c;stroke-width:1.33399999;stroke-linecap:butt;stroke-linejoin:miter;stroke-miterlimit:4;stroke-opacity:1;stroke-dasharray:none"
             id="path4172" />
        </g>
      </g>
    </g>
  </g>
</svg>
