<?xml version="1.0" encoding="utf-8"?>
<!-- Generator: Adobe Illustrator 13.0.2, SVG Export Plug-In . SVG Version: 6.00 Build 14948)  -->
<!DOCTYPE svg PUBLIC "-//W3C//DTD SVG 1.0//EN" "http://www.w3.org/TR/2001/REC-SVG-20010904/DTD/svg10.dtd">
<svg version="1.0" id="Layer_1" xmlns="http://www.w3.org/2000/svg" xmlns:xlink="http://www.w3.org/1999/xlink" x="0px" y="0px"
	 width="62px" height="62px" viewBox="0 0 62 62" enable-background="new 0 0 62 62" xml:space="preserve">
<radialGradient id="SVGID_1_" cx="29.377" cy="35.9883" r="58.8423" gradientTransform="matrix(1.0108 0 0 1.0108 -0.3457 -0.3416)" gradientUnits="userSpaceOnUse">
	<stop  offset="0" style="stop-color:#000000"/>
	<stop  offset="0.1028" style="stop-color:#060101"/>
	<stop  offset="0.2454" style="stop-color:#180405"/>
	<stop  offset="0.4111" style="stop-color:#36080B"/>
	<stop  offset="0.5943" style="stop-color:#5F0E13"/>
	<stop  offset="0.792" style="stop-color:#93161D"/>
	<stop  offset="1" style="stop-color:#D3202A"/>
</radialGradient>
<rect x="0.007" y="0.029" fill="url(#SVGID_1_)" width="62" height="62"/>
<radialGradient id="SVGID_2_" cx="44.6924" cy="23.1777" r="48.2443" gradientTransform="matrix(1.0108 0 0 1.0108 -0.3457 -0.3416)" gradientUnits="userSpaceOnUse">
	<stop  offset="0.011" style="stop-color:#D13334"/>
	<stop  offset="0.1834" style="stop-color:#C43335"/>
	<stop  offset="0.978" style="stop-color:#8D3237"/>
	<stop  offset="1" style="stop-color:#CE242C"/>
</radialGradient>
<path fill="url(#SVGID_2_)" d="M5.905,34.514c1.359-12.938,16.581-6.64,21.053-2.396c-0.781-14.823,21.931-17.444,22.558-3.113
	c0.27,6.136-4.447,10.517-7.543,15.289c-2.676,4.125-5.607,8.094-6.059,12.252C35.914,56.545,3.884,53.75,5.905,34.514z"/>
<linearGradient id="SVGID_3_" gradientUnits="userSpaceOnUse" x1="19.9741" y1="20.0874" x2="33.9111" y2="20.0874" gradientTransform="matrix(0.9849 0.1733 -0.1733 0.9849 17.249 3.4596)">
	<stop  offset="0" style="stop-color:#000000"/>
	<stop  offset="0.489" style="stop-color:#FFFFFF"/>
	<stop  offset="1" style="stop-color:#000000"/>
</linearGradient>
<polyline fill="url(#SVGID_3_)" stroke="#1C1D1D" stroke-width="1.3488" points="32.506,32.02 39.637,20.036 48.18,23.364 
	38.76,35.402 "/>
<radialGradient id="SVGID_4_" cx="18.1919" cy="1.688" r="37.7346" gradientTransform="matrix(0.9955 0.1752 -0.1752 0.9955 17.0887 3.1555)" gradientUnits="userSpaceOnUse">
	<stop  offset="0" style="stop-color:#000000"/>
	<stop  offset="0.489" style="stop-color:#FFFFFF"/>
	<stop  offset="1" style="stop-color:#000000"/>
</radialGradient>
<path fill="url(#SVGID_4_)" stroke="#545554" stroke-width="1.3488" d="M30.571,17.071c-0.89,0.458-1.535,0.964-1.665,2.014
	c1.763,1.818,4.861,1.955,5.625-0.792c4.844,1.144,14.771,4.75,18.5,8.31c-3.711,3.208,6.143,4.201,4.066-1.34
	c-1.619-4.292-9.131-2.31-9.262-7.029c-0.09-3.253,5.523-8.776,8.797-7.74c2.346-4.261-5.611-6.186-7.617-2.617
	c3.287,1.891-4.855,9.904-6.812,10.101c-2.666,0.268-11.403-7.102-12.153-0.542"/>
<path fill="#630B15" d="M30.259,30.355c3.011,1.027,4.999,4.766,8.126,3.652c3.705,1.77,0.184,4.752-0.375,7.588
	c-0.609,3.09,0.086,6.354-1.035,9.059c-2.684-3.486-0.117-9.381-2.971-12.609c-0.377,1.221-1.617,2.266-2.064,3.381
	c-2.272-2.863-0.798-6.252-2.263-9.271c0.396-0.557,1.037-0.984,1.615-1.35"/>
</svg>
