<?xml version="1.0" encoding="utf-8"?>
<!-- Generator: Adobe Illustrator 13.0.2, SVG Export Plug-In . SVG Version: 6.00 Build 14948)  -->
<!DOCTYPE svg PUBLIC "-//W3C//DTD SVG 1.0//EN" "http://www.w3.org/TR/2001/REC-SVG-20010904/DTD/svg10.dtd">
<svg version="1.0" id="Layer_1" xmlns="http://www.w3.org/2000/svg" xmlns:xlink="http://www.w3.org/1999/xlink" x="0px" y="0px"
	 width="62px" height="62px" viewBox="0 0 62 62" enable-background="new 0 0 62 62" xml:space="preserve">
<radialGradient id="SVGID_1_" cx="30.063" cy="28.043" r="39.6872" gradientTransform="matrix(1.0107 0 0 1.0107 -0.7354 -1.8196)" gradientUnits="userSpaceOnUse">
	<stop  offset="0.0055" style="stop-color:#F7EA12"/>
	<stop  offset="1" style="stop-color:#BCD2CE"/>
</radialGradient>
<rect y="-0.001" fill="url(#SVGID_1_)" stroke="#F6921E" stroke-width="0.6744" width="62" height="62.001"/>
<g>
	
		<radialGradient id="SVGID_2_" cx="35.7285" cy="0.3418" r="70.9744" gradientTransform="matrix(1.0107 0 0 1.0107 -0.7354 -1.8196)" gradientUnits="userSpaceOnUse">
		<stop  offset="0" style="stop-color:#F5EEB5"/>
		<stop  offset="1" style="stop-color:#EDA236"/>
	</radialGradient>
	<polygon fill="url(#SVGID_2_)" stroke="#F6921E" stroke-width="2.5488" points="56.338,18.13 45.056,33.514 51.331,51.53 
		33.215,45.554 18.021,57.089 18.105,38.011 2.438,27.126 20.608,21.312 26.121,3.048 37.264,18.531 	"/>
	
		<radialGradient id="SVGID_3_" cx="64.9043" cy="-273.9429" r="69.638" gradientTransform="matrix(0.9881 -0.2129 0.2129 0.9881 24.7449 285.9796)" gradientUnits="userSpaceOnUse">
		<stop  offset="0" style="stop-color:#F5EEB5"/>
		<stop  offset="1" style="stop-color:#EDA236"/>
	</radialGradient>
	<polygon fill="url(#SVGID_3_)" stroke="#F6921E" stroke-width="2.5488" points="35.348,59.025 24.627,43.332 5.623,43.268 
		17.232,28.221 11.424,10.126 29.321,16.521 44.734,5.401 44.185,24.399 59.52,35.623 41.283,40.971 	"/>
	
		<radialGradient id="SVGID_4_" cx="33.7715" cy="12.2456" r="44.1999" gradientTransform="matrix(1.0107 0 0 1.0107 -0.7354 -1.8196)" gradientUnits="userSpaceOnUse">
		<stop  offset="0" style="stop-color:#F5EEB5"/>
		<stop  offset="1" style="stop-color:#EDA236"/>
	</radialGradient>
	<circle fill="url(#SVGID_4_)" stroke="#F6921E" stroke-width="2.5488" cx="29.661" cy="30.195" r="16.823"/>
	<path fill="none" stroke="#F6921E" stroke-width="2.5488" d="M40.705,28.326c-2.404,6.322-11.895,9.176-18.633,4.86"/>
	<path fill="none" stroke="#F6921E" stroke-width="1.2618" d="M19.61,25.78c0.364-3.402,2.743-5.101,5.896-3.958"/>
	<path fill="none" stroke="#F6921E" stroke-width="1.2508" d="M32.549,20.51c1.699-2.72,5.777-1.701,6.95,0.616"/>
</g>
</svg>
