<?xml version="1.0" encoding="utf-8"?>
<!-- Generator: Adobe Illustrator 13.0.2, SVG Export Plug-In . SVG Version: 6.00 Build 14948)  -->
<!DOCTYPE svg PUBLIC "-//W3C//DTD SVG 1.0//EN" "http://www.w3.org/TR/2001/REC-SVG-20010904/DTD/svg10.dtd">
<svg version="1.0" id="Layer_1" xmlns="http://www.w3.org/2000/svg" xmlns:xlink="http://www.w3.org/1999/xlink" x="0px" y="0px"
	 width="62px" height="62px" viewBox="0 0 62 62" enable-background="new 0 0 62 62" xml:space="preserve">
<g>
	
		<radialGradient id="SVGID_1_" cx="31.0415" cy="31.0029" r="30.8333" gradientTransform="matrix(1.0054 0 0 1.0054 -0.167 -0.1673)" gradientUnits="userSpaceOnUse">
		<stop  offset="0.0055" style="stop-color:#9E1D20"/>
		<stop  offset="1" style="stop-color:#E77034"/>
	</radialGradient>
	<rect x="0.042" y="0.003" fill="url(#SVGID_1_)" width="62" height="62"/>
	
		<radialGradient id="SVGID_2_" cx="30.5952" cy="32.793" r="56.639" gradientTransform="matrix(1.0054 0 0 1.0054 -0.167 -0.1673)" gradientUnits="userSpaceOnUse">
		<stop  offset="0.1154" style="stop-color:#FFFFFF"/>
		<stop  offset="0.989" style="stop-color:#FFFFFF"/>
	</radialGradient>
	<ellipse fill="url(#SVGID_2_)" stroke="#2D2D2D" stroke-width="1.3488" cx="32.391" cy="30.104" rx="22.03" ry="20.682"/>
	
		<radialGradient id="SVGID_3_" cx="-15.0337" cy="-31.0405" r="24.5602" gradientTransform="matrix(1.3056 0.3441 -0.2988 1.1341 58.9287 75.425)" gradientUnits="userSpaceOnUse">
		<stop  offset="0" style="stop-color:#B47F91"/>
		<stop  offset="0.016" style="stop-color:#BA899A"/>
		<stop  offset="0.0748" style="stop-color:#CCA8B5"/>
		<stop  offset="0.1415" style="stop-color:#DCC4CC"/>
		<stop  offset="0.2167" style="stop-color:#E9DADF"/>
		<stop  offset="0.3045" style="stop-color:#F3EBED"/>
		<stop  offset="0.4132" style="stop-color:#FAF6F8"/>
		<stop  offset="0.5657" style="stop-color:#FEFDFD"/>
		<stop  offset="0.989" style="stop-color:#FFFFFF"/>
	</radialGradient>
	<path fill="url(#SVGID_3_)" d="M59.116,36.154c1.956-7.422-1.817-14.853-8.428-16.593c-6.609-1.742-13.553,2.864-15.509,10.286
		c-1.955,7.423,1.817,14.852,8.428,16.593C50.217,48.183,57.162,43.576,59.116,36.154z"/>
	
		<radialGradient id="SVGID_4_" cx="-320.7764" cy="62.9014" r="24.5594" gradientTransform="matrix(-1.3056 0.3441 0.2988 1.1341 -421.1079 75.425)" gradientUnits="userSpaceOnUse">
		<stop  offset="0" style="stop-color:#B47F91"/>
		<stop  offset="0.016" style="stop-color:#BA899A"/>
		<stop  offset="0.0748" style="stop-color:#CCA8B5"/>
		<stop  offset="0.1415" style="stop-color:#DCC4CC"/>
		<stop  offset="0.2167" style="stop-color:#E9DADF"/>
		<stop  offset="0.3045" style="stop-color:#F3EBED"/>
		<stop  offset="0.4132" style="stop-color:#FAF6F8"/>
		<stop  offset="0.5657" style="stop-color:#FEFDFD"/>
		<stop  offset="0.989" style="stop-color:#FFFFFF"/>
	</radialGradient>
	<path fill="url(#SVGID_4_)" d="M5.956,37.504c-1.955-7.422,1.817-14.853,8.429-16.594c6.609-1.741,13.554,2.863,15.508,10.286
		c1.956,7.422-1.817,14.852-8.427,16.592C14.855,49.531,7.912,44.926,5.956,37.504z"/>
	
		<ellipse transform="matrix(0.9848 -0.1734 0.1734 0.9848 -4.2305 5.0479)" fill="#EFEEEE" stroke="#1C1D1D" stroke-width="1.3488" cx="26.771" cy="26.733" rx="5.171" ry="7.419"/>
	
		<ellipse transform="matrix(0.9405 0.3397 -0.3397 0.9405 11.405 -11.2333)" fill="#EFEEEE" stroke="#1C1D1D" stroke-width="1.3488" cx="37.786" cy="26.957" rx="5.171" ry="7.419"/>
	<path fill="#231F20" d="M28.057,33.59c1.439-0.253,2.585-1.342,3.269-2.883c-0.622-1.42-1.922-2.401-3.432-2.401
		c-1.965,0-3.583,1.661-3.795,3.794C25.249,33.248,26.658,33.836,28.057,33.59z"/>
	<path fill="#231F20" d="M35.01,34.489c-1.438-0.254-2.585-1.342-3.269-2.885c0.621-1.419,1.922-2.399,3.432-2.399
		c1.966,0,3.584,1.66,3.796,3.795C37.817,34.147,36.41,34.734,35.01,34.489z"/>
	<line fill="none" stroke="#1C1D1D" stroke-width="1.3488" x1="19.802" y1="15.268" x2="24.298" y2="11.671"/>
	<line fill="none" stroke="#1C1D1D" stroke-width="1.3488" x1="39.584" y1="11.671" x2="42.73" y2="16.167"/>
	<polyline fill="none" stroke="#1C1D1D" stroke-width="1.3488" points="23.922,43.68 28.639,40.647 32.345,44.354 36.725,39.301 
		40.768,44.691 	"/>
</g>
</svg>
