<?xml version="1.0" encoding="utf-8"?>
<!-- Generator: Adobe Illustrator 13.0.2, SVG Export Plug-In . SVG Version: 6.00 Build 14948)  -->
<!DOCTYPE svg PUBLIC "-//W3C//DTD SVG 1.0//EN" "http://www.w3.org/TR/2001/REC-SVG-20010904/DTD/svg10.dtd">
<svg version="1.0" id="Layer_1" xmlns="http://www.w3.org/2000/svg" xmlns:xlink="http://www.w3.org/1999/xlink" x="0px" y="0px"
	 width="62px" height="62px" viewBox="0 0 62 62" enable-background="new 0 0 62 62" xml:space="preserve">
<g>
	<g>
		<defs>
			<rect id="SVGID_1_" x="0.034" y="0" width="61.966" height="62"/>
		</defs>
		<clipPath id="SVGID_2_">
			<use xlink:href="#SVGID_1_"  overflow="visible"/>
		</clipPath>
		
			<radialGradient id="SVGID_3_" cx="30.3828" cy="50.6133" r="67.3178" gradientTransform="matrix(1.0102 0 0 1.0107 -0.3486 -0.3528)" gradientUnits="userSpaceOnUse">
			<stop  offset="0" style="stop-color:#BDC136"/>
			<stop  offset="0.354" style="stop-color:#8DA76B"/>
			<stop  offset="0.7912" style="stop-color:#5689A7"/>
			<stop  offset="1" style="stop-color:#417DBF"/>
		</radialGradient>
		
			<rect x="0.034" y="0" clip-path="url(#SVGID_2_)" fill="url(#SVGID_3_)" stroke="#FAAF40" stroke-width="0.6742" width="61.966" height="62"/>
		<g clip-path="url(#SVGID_2_)">
			
				<radialGradient id="SVGID_4_" cx="0.7832" cy="41.5684" r="23.1793" gradientTransform="matrix(1.0102 0 0 1.0107 -0.3486 -0.3528)" gradientUnits="userSpaceOnUse">
				<stop  offset="0" style="stop-color:#ACC9E9"/>
				<stop  offset="0.1947" style="stop-color:#95B9E0"/>
				<stop  offset="0.7399" style="stop-color:#598EC8"/>
				<stop  offset="1" style="stop-color:#417DBF"/>
			</radialGradient>
			<path fill="url(#SVGID_4_)" stroke="#2B388F" stroke-width="0.4028" d="M0.505,39.674c0-7.856,0-16.603,0-24.433
				C0.356,15.127,0.191,14.996,0,14.831"/>
			
				<radialGradient id="SVGID_5_" cx="20.083" cy="45.5361" r="41.7294" gradientTransform="matrix(1.0102 0 0 1.0107 -0.3486 -0.3528)" gradientUnits="userSpaceOnUse">
				<stop  offset="0" style="stop-color:#ACC9E9"/>
				<stop  offset="0.1947" style="stop-color:#95B9E0"/>
				<stop  offset="0.7399" style="stop-color:#598EC8"/>
				<stop  offset="1" style="stop-color:#417DBF"/>
			</radialGradient>
			<path fill="url(#SVGID_5_)" stroke="#2B388F" stroke-width="0.4028" d="M19.859,17.574l-8.055-2.417
				c-3.356-0.646-6.438,0.51-8.901,2.337c-1.201-1.814-1.249-1.383-2.398-2.253c0,7.83,0,16.577,0,24.433
				c3.328,2.145,6.769,3.537,9.688,3.689C27.129,44.243,22.992,27.912,19.859,17.574z"/>
			
				<radialGradient id="SVGID_6_" cx="28.7744" cy="30.5122" r="31.0554" gradientTransform="matrix(1.0102 0 0 1.0107 -0.3486 -0.3528)" gradientUnits="userSpaceOnUse">
				<stop  offset="0" style="stop-color:#D9D230"/>
				<stop  offset="0.3402" style="stop-color:#BACCB1"/>
				<stop  offset="0.5" style="stop-color:#ACC9E9"/>
				<stop  offset="0.5856" style="stop-color:#A6C6E8"/>
				<stop  offset="1" style="stop-color:#8FBAE3"/>
			</radialGradient>
			<path fill="url(#SVGID_6_)" stroke="#2B388F" stroke-width="0.4028" d="M26.97,18.48c1.188,3.241,2.176,6.99,2.451,10.273
				c-7.638-1.57-35.355-5.71-22.67-20.265c9.88-11.336,19.599,2.636,20.272,9.88"/>
			<path fill="#FFFFFF" stroke="#2B388F" stroke-width="0.4028" d="M15.658,18.453c-0.466-2.13-4.199-7.146-7.702-5.547
				c-5.292,2.415,3.407,7.822,7.069,5.475"/>
			<path fill="#231F20" stroke="#2B388F" stroke-width="0.4028" d="M15.322,18.116c-1.532,1.495-2.432,0.976-5.006,0.143
				c-0.322-4.651,2.352-4.699,4.71-1.49"/>
		</g>
		<g clip-path="url(#SVGID_2_)">
			
				<radialGradient id="SVGID_7_" cx="43.4287" cy="33.6816" r="30.017" gradientTransform="matrix(1.0102 0 0 1.0107 -0.3486 -0.3528)" gradientUnits="userSpaceOnUse">
				<stop  offset="0" style="stop-color:#ACC9E9"/>
				<stop  offset="0.1947" style="stop-color:#95B9E0"/>
				<stop  offset="0.7399" style="stop-color:#598EC8"/>
				<stop  offset="1" style="stop-color:#417DBF"/>
			</radialGradient>
			<path fill="url(#SVGID_7_)" stroke="#2B388F" stroke-width="0.4028" d="M61.791,18.369c0,0-3.932-2.995-5.686-3.212
				l-11.277-2.418c-0.898,3.847-3.809,5.757-4.15,9.549c-3.217-1.348-3.389,0.8-3.846-3.623c-4.057,2.708-4.205,6.858,0.484,7.755
				c-2.074,1.176-3.084,3.412-4.486,4.735c1.123-0.099,2.566,0.227,3.682,0.237c-8.569,7.025,4.725,11.214,9.928,11.971
				c7.385,1.072,15.268-2.337,15.268-2.337L61.791,18.369z"/>
			
				<radialGradient id="SVGID_8_" cx="43.9238" cy="32.0889" r="31.8908" gradientTransform="matrix(1.0102 0 0 1.0107 -0.3486 -0.3528)" gradientUnits="userSpaceOnUse">
				<stop  offset="0" style="stop-color:#D9D230"/>
				<stop  offset="0.3402" style="stop-color:#BACCB1"/>
				<stop  offset="0.5" style="stop-color:#ACC9E9"/>
				<stop  offset="0.5856" style="stop-color:#A6C6E8"/>
				<stop  offset="1" style="stop-color:#8FBAE3"/>
			</radialGradient>
			<path fill="url(#SVGID_8_)" stroke="#2B388F" stroke-width="0.4028" d="M59.658,18.165c4.541-11.417-9.414-18.942-16.574-9.8
				c-3.035,3.875,2.59,22.871,1.287,23.529C49.043,29.534,57.621,23.287,59.658,18.165z"/>
			<path fill="#FFFFFF" stroke="#2B388F" stroke-width="0.4028" d="M56.91,19.186c-3.484,6.602-9.461-5.48,0.863-5.34
				c0.289,2.147,0,3.645-0.865,5.45"/>
			<path fill="#FFFFFF" stroke="#2B388F" stroke-width="0.4028" d="M42.412,15.962c0.92,1.107,0.453,2.452,3.08,1.472
				c1.73-3.134-0.234-5.877-3.299-7.636c-0.908,2.033-0.242,4.253-0.102,6.633"/>
			<path fill="#231F20" stroke="#2B388F" stroke-width="0.4028" d="M57.414,17.695c-1.496-1.172-4.992-1.292-4.463,2.779
				c1.432,0.59,2.189,1.938,4.611-2.362"/>
			<path fill="#231F20" stroke="#2B388F" stroke-width="0.37" d="M45.543,17.442c0.674-2.358-0.391-3.911-3.443-2.972
				c-0.012,0.895-0.199,0.271,0.328,2.214c0.82,0.896,1.348,1.432,2.695,1.011"/>
		</g>
		<g clip-path="url(#SVGID_2_)">
			
				<radialGradient id="SVGID_9_" cx="-123.7988" cy="34.2832" r="26.4425" gradientTransform="matrix(0.9014 0 0 1.0107 142.5952 -0.3528)" gradientUnits="userSpaceOnUse">
				<stop  offset="0" style="stop-color:#77C596"/>
				<stop  offset="0.2573" style="stop-color:#38BB80"/>
				<stop  offset="0.5" style="stop-color:#00B26C"/>
				<stop  offset="0.5432" style="stop-color:#00B169"/>
				<stop  offset="1" style="stop-color:#00A552"/>
			</radialGradient>
			<path fill="url(#SVGID_9_)" stroke="#006838" stroke-width="0.7278" d="M27.108,34.556c0.546-3.819-5.716-3.587-5.739,1.284
				c-0.004,0.838,0.896,1.178,0.887,1.985c-0.007,0.636-0.915,2.186-1.099,2.908c-0.552,2.177,0.156,4.567-2.298,3.846
				c-0.925-0.271-1.59-1.366-2.576-1.732c-1.069-0.396-2.31-0.471-3.441-0.328C10.761,42.781,9.48,43.9,10.2,46.641
				c1.052,3.998,5.873,5.359,8.855,6.712c0.737,2.947-5.82,2.044-7.284,3.492c3.379,0.45,8.641,1.263,11.872-0.164
				c-0.345,1.065-0.557,2.332-0.382,3.536c0.491-0.353,1.526-2.325,2.01-2.303c1.315,0.058,0.443,2.167,1.805,2.289
				c-0.095-0.593,0.179-1.393,0.067-1.981c1.006,0.389,1.288,1.687,2.451,1.726c-0.141-0.841-0.264-1.623-0.389-2.49
				c1.84-0.109,3.792-0.118,5.624,0c-0.656,0.705-1.357,1.656-1.682,2.49c0.832-0.378,1.762-0.762,2.639-0.962
				c-0.127,0.37-0.047,1.124-0.164,1.482c0.746-0.092,1.314-0.733,1.584-1.485c0.174,0.396,0.582,0.859,0.713,1.231
				c0.113-3.425-0.107-4.188,3.395-3.824c1.859,0.194,4.705,0.03,6.166-0.97c-2.492-0.62-5.904-0.977-8.189-2.157
				c-1.334-0.69,4.461-4.073,4.992-4.457c1.738-1.243,3.684-2.871,2.947-5.496c-1.455-5.197-8.041,1.467-10.693,0.712
				c-0.113-0.894-1.162-7.054-2.518-6.576c3.41-1.201,0.684-6.552-2.516-5.158c-0.174,0.658-0.635,0.987-0.768,1.716
				c-0.967,0.057-1.96,0.035-2.938,0.039"/>
			<path fill="#E6E6E6" stroke="#231F20" stroke-width="0.5216" d="M25.014,36.363c-1.021,0.833-2.332,0.765-2.928-0.154
				c-0.595-0.918-0.249-2.338,0.773-3.17c1.021-0.833,2.333-0.764,2.928,0.154C26.382,34.111,26.036,35.53,25.014,36.363z"/>
			<path fill="#E6E6E6" stroke="#231F20" stroke-width="0.5216" d="M34.307,33.155c0.951,0.934,1.182,2.382,0.516,3.236
				c-0.668,0.853-1.979,0.788-2.93-0.145c-0.951-0.933-1.18-2.383-0.512-3.235C32.047,32.158,33.357,32.223,34.307,33.155z"/>
			<ellipse fill="#231F20" stroke="#231F20" stroke-width="0.5216" cx="32.491" cy="33.914" rx="1.26" ry="1.155"/>
			<ellipse fill="#231F20" stroke="#231F20" stroke-width="0.5216" cx="23.443" cy="33.914" rx="1.26" ry="1.155"/>
			<path fill="none" stroke="#231F20" stroke-width="0.8491" d="M24.817,42.775c3.792-2.673,5.879,0.088,9.164,2.312"/>
			<path fill="none" stroke="#006838" stroke-width="0.7278" d="M29.17,57.16c-0.973-1.64-2.056-6.639-3.208-7.191"/>
			<path fill="none" stroke="#006838" stroke-width="0.7278" d="M23.443,56.904c0.282-2.656,0.976-5.641-0.688-7.964"/>
			<path fill="none" stroke="#006838" stroke-width="0.7278" d="M33.98,57.931c2.68-1.892-1.068-6.7-2.289-8.477"/>
			<path fill="none" stroke="#006838" stroke-width="0.7278" d="M38.334,57.931c-0.424-1.404,0.146-3.014-0.264-4.379
				c-0.422-1.415-2.184-3.505-2.943-4.611"/>
			<path fill="none" stroke="#006838" stroke-width="0.7278" d="M16.34,46.886c1.258,2.631,5.13,3.899,6.873,6.165"/>
			<path fill="none" stroke="#006838" stroke-width="0.7278" d="M36.73,50.739c2.014-0.194,4.844-3.802,6.871-4.88"/>
		</g>
	</g>
</g>
</svg>
