<?xml version="1.0" encoding="utf-8"?>
<!-- Generator: Adobe Illustrator 13.0.2, SVG Export Plug-In . SVG Version: 6.00 Build 14948)  -->
<!DOCTYPE svg PUBLIC "-//W3C//DTD SVG 1.0//EN" "http://www.w3.org/TR/2001/REC-SVG-20010904/DTD/svg10.dtd">
<svg version="1.0" id="Layer_1" xmlns="http://www.w3.org/2000/svg" xmlns:xlink="http://www.w3.org/1999/xlink" x="0px" y="0px"
	 width="62px" height="62px" viewBox="0 0 62 62" enable-background="new 0 0 62 62" xml:space="preserve">
<g>
	<path fill="#262261" d="M-0.035,0.008v62.128h61.838V0.008H-0.035z M61.787,39.232c0-2.025,0-4.051,0-6.078
		C61.787,35.182,61.787,37.207,61.787,39.232z"/>
	
		<radialGradient id="SVGID_1_" cx="32.0801" cy="-126.7861" r="56.8917" gradientTransform="matrix(1.0081 0 0 0.477 -0.251 100.014)" gradientUnits="userSpaceOnUse">
		<stop  offset="0" style="stop-color:#F5EEB5"/>
		<stop  offset="1" style="stop-color:#EDA236"/>
	</radialGradient>
	<polygon fill="url(#SVGID_1_)" points="27.072,41.231 32.4,48.99 49.643,48.99 35.693,53.788 41.022,61.548 27.072,56.751 
		13.123,61.548 18.451,53.788 4.501,48.99 21.744,48.99 	"/>
	
		<radialGradient id="SVGID_2_" cx="31.0532" cy="41.2188" r="30.5649" gradientTransform="matrix(1.0081 0 0 1.0128 -0.251 -0.4696)" gradientUnits="userSpaceOnUse">
		<stop  offset="0" style="stop-color:#F5EEB5"/>
		<stop  offset="1" style="stop-color:#EDA236"/>
	</radialGradient>
	<path fill="url(#SVGID_2_)" d="M48.605,55.678l-13.781-4.902l5.594-7.719l-14.112,4.688l-13.784-4.902l5.062,7.802L3.472,55.331
		l17.24,0.132l3.926,6.053c0.801,0,1.602,0,2.402,0l4.327-5.971L48.605,55.678z"/>
	
		<radialGradient id="SVGID_3_" cx="26.1455" cy="61.1992" r="1.0683" gradientTransform="matrix(1.0081 0 0 1.0128 -0.251 -0.4696)" gradientUnits="userSpaceOnUse">
		<stop  offset="0" style="stop-color:#F5EEB5"/>
		<stop  offset="1" style="stop-color:#EDA236"/>
	</radialGradient>
	<path fill="url(#SVGID_3_)" d="M27.04,61.516c-0.8,0-1.601,0-2.402,0"/>
	<g opacity="0.52">
		
			<radialGradient id="SVGID_4_" cx="55.5117" cy="54.2168" r="38.3953" gradientTransform="matrix(1.0081 0 0 1.0128 -0.251 -0.4696)" gradientUnits="userSpaceOnUse">
			<stop  offset="0" style="stop-color:#E9723D"/>
			<stop  offset="1" style="stop-color:#7A3A14"/>
		</radialGradient>
		<path fill="url(#SVGID_4_)" d="M36.975,25.462c-1.434-0.456-2.963,0.342-3.417,1.782c-0.452,1.438,0.34,2.974,1.774,3.43
			L60.4,38.648c0.468,0.148,0.94,0.152,1.387,0.057c0-1.784,0-3.566,0-5.351L36.975,25.462z"/>
		
			<radialGradient id="SVGID_5_" cx="59.8906" cy="44.8418" r="14.7513" gradientTransform="matrix(1.0081 0 0 1.0128 -0.251 -0.4696)" gradientUnits="userSpaceOnUse">
			<stop  offset="0" style="stop-color:#E9723D"/>
			<stop  offset="1" style="stop-color:#7A3A14"/>
		</radialGradient>
		<path fill="url(#SVGID_5_)" d="M54.033,33.438l7.754-0.083c0,1.784,0,3.566,0,5.351"/>
		
			<radialGradient id="SVGID_6_" cx="-37.7358" cy="201.8457" r="25.2234" gradientTransform="matrix(0.877 0.2789 -0.3042 0.9656 118.8637 -171.0551)" gradientUnits="userSpaceOnUse">
			<stop  offset="0" style="stop-color:#E75E3B"/>
			<stop  offset="1" style="stop-color:#7A3A14"/>
		</radialGradient>
		<path fill="url(#SVGID_6_)" d="M32.508,39.812c-0.604,1.917-2.507,3.023-4.25,2.471l-10.65-3.389
			c-1.743-0.555-2.666-2.561-2.061-4.479l6.296-19.977c0.604-1.919,2.507-3.025,4.25-2.47l10.651,3.388
			c1.742,0.554,2.663,2.559,2.059,4.476L32.508,39.812z"/>
		
			<linearGradient id="SVGID_7_" gradientUnits="userSpaceOnUse" x1="25.5513" y1="223.7236" x2="25.5513" y2="228.7578" gradientTransform="matrix(0.9534 0.3018 -0.3018 0.9534 67.4679 -184.7768)">
			<stop  offset="0" style="stop-color:#AC4228"/>
			<stop  offset="0.0623" style="stop-color:#A74126"/>
			<stop  offset="0.414" style="stop-color:#8E3D1C"/>
			<stop  offset="0.7364" style="stop-color:#7F3B16"/>
			<stop  offset="1" style="stop-color:#7A3A14"/>
		</linearGradient>
		<path fill="url(#SVGID_7_)" d="M34.572,42.14c-0.416,1.317-1.818,2.049-3.131,1.631L14.151,38.27
			c-1.313-0.417-2.041-1.824-1.625-3.144l0,0c0.416-1.319,1.817-2.05,3.13-1.633l17.292,5.501
			C34.26,39.413,34.988,40.82,34.572,42.14L34.572,42.14z"/>
		
			<linearGradient id="SVGID_8_" gradientUnits="userSpaceOnUse" x1="25.5181" y1="198.6816" x2="25.5181" y2="203.7158" gradientTransform="matrix(0.9534 0.3018 -0.3018 0.9534 67.4679 -184.7768)">
			<stop  offset="0" style="stop-color:#E6503A"/>
			<stop  offset="1" style="stop-color:#7A3A14"/>
		</linearGradient>
		<path fill="url(#SVGID_8_)" d="M42.098,18.253c-0.415,1.319-1.816,2.049-3.129,1.633l-17.292-5.5
			c-1.313-0.419-2.04-1.826-1.624-3.145l0,0c0.416-1.32,1.817-2.05,3.13-1.632l17.292,5.5
			C41.787,15.526,42.514,16.934,42.098,18.253L42.098,18.253z"/>
	</g>
	<g opacity="0.34">
		
			<radialGradient id="SVGID_9_" cx="56.8301" cy="63.2676" r="58.5835" gradientTransform="matrix(1.0081 0 0 1.0128 -0.251 -0.4696)" gradientUnits="userSpaceOnUse">
			<stop  offset="0" style="stop-color:#E9723D"/>
			<stop  offset="1" style="stop-color:#7A3A14"/>
		</radialGradient>
		<path fill="url(#SVGID_9_)" d="M61.719,31.267L43.326,17.402c-1.197-0.916-2.904-0.684-3.815,0.517
			c-0.909,1.201-0.681,2.916,0.517,3.831l21.945,16.678"/>
		
			<radialGradient id="SVGID_10_" cx="39.0225" cy="388.5312" r="25.2234" gradientTransform="matrix(0.7317 0.5602 -0.6111 0.8055 243.162 -331.461)" gradientUnits="userSpaceOnUse">
			<stop  offset="0" style="stop-color:#E75E3B"/>
			<stop  offset="1" style="stop-color:#7A3A14"/>
		</radialGradient>
		<path fill="url(#SVGID_10_)" d="M33.039,31.055c-1.214,1.6-3.376,1.995-4.83,0.883l-8.885-6.803
			c-1.455-1.113-1.648-3.314-0.434-4.915L31.532,3.554c1.214-1.601,3.378-1.996,4.83-0.883l8.887,6.804
			c1.452,1.113,1.646,3.312,0.434,4.913L33.039,31.055z"/>
		
			<linearGradient id="SVGID_11_" gradientUnits="userSpaceOnUse" x1="96.4365" y1="409.1377" x2="96.4365" y2="414.1807" gradientTransform="matrix(0.7953 0.6062 -0.6062 0.7953 197.8564 -358.9473)">
			<stop  offset="0" style="stop-color:#AC4228"/>
			<stop  offset="0.0623" style="stop-color:#A74126"/>
			<stop  offset="0.414" style="stop-color:#8E3D1C"/>
			<stop  offset="0.7364" style="stop-color:#7F3B16"/>
			<stop  offset="1" style="stop-color:#7A3A14"/>
		</linearGradient>
		<path fill="url(#SVGID_11_)" d="M34.199,33.946c-0.835,1.101-2.399,1.312-3.495,0.474L16.28,23.375
			c-1.096-0.839-1.307-2.41-0.472-3.512l0,0c0.835-1.1,2.399-1.312,3.495-0.474l14.425,11.046
			C34.822,31.274,35.035,32.846,34.199,33.946L34.199,33.946z"/>
		<linearGradient id="SVGID_12_" gradientUnits="userSpaceOnUse" x1="40.1211" y1="0.0601" x2="40.1211" y2="15.0063">
			<stop  offset="0" style="stop-color:#E6503A"/>
			<stop  offset="1" style="stop-color:#7A3A14"/>
		</linearGradient>
		<path fill="url(#SVGID_12_)" d="M30.93,0.124c-0.834,1.101-0.63,2.486,0.465,3.324l14.425,11.046
			c1.096,0.837,2.659,0.627,3.496-0.475c0.835-1.1,0.622-2.672-0.473-3.511L35.192,0.06c-1.055,0-2.843,0-3.627,0"/>
	</g>
	<g>
		
			<radialGradient id="SVGID_13_" cx="55.4219" cy="45.5166" r="20.3795" gradientTransform="matrix(1.0081 0 0 1.0128 -0.251 -0.4696)" gradientUnits="userSpaceOnUse">
			<stop  offset="0" style="stop-color:#E9723D"/>
			<stop  offset="1" style="stop-color:#7A3A14"/>
		</radialGradient>
		<path fill="url(#SVGID_13_)" d="M61.838,33.785h-0.051c0,2.079,0,3.367,0,5.447c0-1.816,0-3.631,0-5.447H35.541
			c-1.504,0-2.721,1.225-2.721,2.735c0,1.508,1.217,2.732,2.721,2.732h26.297"/>
		
			<radialGradient id="SVGID_14_" cx="-37.1528" cy="26.1758" r="25.2223" gradientTransform="matrix(0.9199 0 0 1.0128 54.0503 -0.4696)" gradientUnits="userSpaceOnUse">
			<stop  offset="0" style="stop-color:#E75E3B"/>
			<stop  offset="1" style="stop-color:#7A3A14"/>
		</radialGradient>
		<path fill="url(#SVGID_14_)" d="M35.594,48.818c0,2.013-1.482,3.645-3.309,3.645H21.114c-1.828,0-3.31-1.632-3.31-3.645V27.864
			c0-2.012,1.482-3.644,3.31-3.644h11.171c1.826,0,3.309,1.631,3.309,3.644V48.818z"/>
		<linearGradient id="SVGID_15_" gradientUnits="userSpaceOnUse" x1="26.6987" y1="47.9072" x2="26.6987" y2="52.917">
			<stop  offset="0" style="stop-color:#AC4228"/>
			<stop  offset="0.0623" style="stop-color:#A74126"/>
			<stop  offset="0.414" style="stop-color:#8E3D1C"/>
			<stop  offset="0.7364" style="stop-color:#7F3B16"/>
			<stop  offset="1" style="stop-color:#7A3A14"/>
		</linearGradient>
		<path fill="url(#SVGID_15_)" d="M38.261,50.412c0,1.385-1.116,2.505-2.492,2.505H17.631c-1.378,0-2.494-1.12-2.494-2.505l0,0
			c0-1.383,1.116-2.505,2.494-2.505h18.138C37.145,47.907,38.261,49.029,38.261,50.412L38.261,50.412z"/>
		<linearGradient id="SVGID_16_" gradientUnits="userSpaceOnUse" x1="26.6987" y1="22.854" x2="26.6987" y2="27.8643">
			<stop  offset="0" style="stop-color:#E6503A"/>
			<stop  offset="1" style="stop-color:#7A3A14"/>
		</linearGradient>
		<path fill="url(#SVGID_16_)" d="M38.261,25.359c0,1.384-1.116,2.505-2.492,2.505H17.631c-1.378,0-2.494-1.121-2.494-2.505l0,0
			c0-1.383,1.116-2.505,2.494-2.505h18.138C37.145,22.854,38.261,23.976,38.261,25.359L38.261,25.359z"/>
	</g>
	<path fill="none" stroke="#1A1A1A" stroke-width="0.6742" d="M19.45,21.184c0-10.957,12.637-19.823,18.834-19.823"/>
	<path fill="none" stroke="#1A1A1A" stroke-width="0.6742" d="M27.97,21.184c0-9.463,9.641-17.571,14.349-17.571"/>
	<path fill="none" stroke="#333333" stroke-width="0.6742" d="M35.145,20.732c0-7.719,7.504-13.966,13.451-13.966"/>
</g>
</svg>
