<?xml version="1.0" encoding="utf-8"?>
<!-- Generator: Adobe Illustrator 13.0.2, SVG Export Plug-In . SVG Version: 6.00 Build 14948)  -->
<!DOCTYPE svg PUBLIC "-//W3C//DTD SVG 1.0//EN" "http://www.w3.org/TR/2001/REC-SVG-20010904/DTD/svg10.dtd">
<svg version="1.0" id="Layer_1" xmlns="http://www.w3.org/2000/svg" xmlns:xlink="http://www.w3.org/1999/xlink" x="0px" y="0px"
	 width="62px" height="62px" viewBox="0 0 62 62" enable-background="new 0 0 62 62" xml:space="preserve">
<g>
	<g>
		<defs>
			<rect id="SVGID_1_" x="0.075" y="0.25" width="61.847" height="61.769"/>
		</defs>
		<clipPath id="SVGID_2_">
			<use xlink:href="#SVGID_1_"  overflow="visible"/>
		</clipPath>
		<linearGradient id="SVGID_3_" gradientUnits="userSpaceOnUse" x1="86.7197" y1="-15.1973" x2="-96.8272" y2="137.4224">
			<stop  offset="0" style="stop-color:#282881"/>
			<stop  offset="0.096" style="stop-color:#2A2C84"/>
			<stop  offset="0.1966" style="stop-color:#2F398C"/>
			<stop  offset="0.2994" style="stop-color:#384E99"/>
			<stop  offset="0.4029" style="stop-color:#446BAC"/>
			<stop  offset="0.4888" style="stop-color:#5089BF"/>
			<stop  offset="0.6047" style="stop-color:#3A5C99"/>
			<stop  offset="0.7245" style="stop-color:#273478"/>
			<stop  offset="0.8345" style="stop-color:#191860"/>
			<stop  offset="0.9299" style="stop-color:#100651"/>
			<stop  offset="1" style="stop-color:#0D004C"/>
		</linearGradient>
		<rect x="0.075" y="0.25" clip-path="url(#SVGID_2_)" fill="url(#SVGID_3_)" width="61.847" height="61.769"/>
		<path clip-path="url(#SVGID_2_)" fill="#231F20" d="M19.879,61.778c4.033-4.027-0.948-10.479-1.971-19.23
			c-1.075-9.193,4.255-21.079,15.129-20.016c6.542,0.641,11.118,4.706,13.09,10.635c1.411,4.25,0.908,8.676-0.464,12.883
			c-1.245,3.811-3.336,8.496-2.51,12.465c0.878,4.205-0.382-0.834,0.924,3.264"/>
		<path clip-path="url(#SVGID_2_)" fill="#EC1C24" d="M25.609,34.366c0.102,0.158,0.072,0.377,0.096,0.586
			c0.514-2.34,4.476-3.412,4.68-0.393c0.165,2.418-2.975,3.314-4.993,6.227c-0.897-2.24-4.933-3.809-4.036-6.271
			C22.239,32.087,24.271,32.276,25.609,34.366z"/>
		<path clip-path="url(#SVGID_2_)" fill="#EC1C24" d="M37.989,33.706c0.115,0.352,0.146,0.752,0.057,1.191
			c1.042-1.824,4.499-3.471,5.062-0.383c0.449,2.463-2.243,2.912-4.261,6.047c-0.896-2.463-5.382-3.135-4.934-6.047
			C34.301,32.001,37.38,31.858,37.989,33.706z"/>
		<path clip-path="url(#SVGID_2_)" fill="none" stroke="#231F20" stroke-width="2.0169" d="M36.38,24.437
			c1.042-3.063,1.248-6.33,2.354-9.406"/>
		<path clip-path="url(#SVGID_2_)" fill="none" stroke="#231F20" stroke-width="2.0169" d="M39.07,26.789
			c2.031-1.465,3.769-3.152,5.718-4.703"/>
		<path clip-path="url(#SVGID_2_)" fill="none" stroke="#231F20" stroke-width="2.0169" d="M28.644,25.781
			c-0.482-2.952-1.516-5.627-1.682-8.734"/>
		<path clip-path="url(#SVGID_2_)" fill="none" stroke="#231F20" stroke-width="2.0169" d="M26.625,26.453
			c-0.96-1.775-1.935-3.609-2.018-5.711"/>
		<path clip-path="url(#SVGID_2_)" fill="none" stroke="#231F20" stroke-width="2.0169" d="M45.125,34.515
			c1.425-2.055,2.832-4.07,4.373-6.046"/>
		<path clip-path="url(#SVGID_2_)" fill="none" stroke="#231F20" stroke-width="2.0169" d="M46.471,36.866
			c0.991-0.408,1.88-0.965,2.691-1.68"/>
		<path clip-path="url(#SVGID_2_)" fill="none" stroke="#231F20" stroke-width="2.0169" d="M21.58,30.82
			c-1.736-1.551-3.396-3.618-4.373-5.711"/>
		<path clip-path="url(#SVGID_2_)" fill="none" stroke="#231F20" stroke-width="2.0169" d="M18.889,33.171
			c-0.693-1.305-1.917-2.311-3.363-2.687"/>
		<path clip-path="url(#SVGID_2_)" fill="none" stroke="#231F20" stroke-width="2.0169" d="M24.607,26.117
			c-1.441,0.27-3.099-1.603-4.373-2.688"/>
		<path clip-path="url(#SVGID_2_)" fill="none" stroke="#231F20" stroke-width="2.0169" d="M18.889,37.202
			c-0.049-0.416,0.865-0.533-0.022-0.721c-1.079,0.408-2.181,0.648-3.341,0.721"/>
		<path clip-path="url(#SVGID_2_)" fill="none" stroke="#231F20" stroke-width="2.0169" d="M45.798,40.562
			c1.112,0.215,2.282,0.566,3.364,1.008"/>
		<path clip-path="url(#SVGID_2_)" fill="none" stroke="#999999" stroke-width="1.3446" d="M33.353,16.71
			c-1.374-0.327-3.577-1.86-3.968-3.367c-0.548-2.11,0.544-1.679,1.277-3.269c0.643-1.396,1.104-1.669,1.353-3.442
			c0.23-1.641-1.522-2.282,0.329-3.695"/>
		<path clip-path="url(#SVGID_2_)" fill="none" stroke="#999999" stroke-width="1.3446" d="M35.707,11.671
			c-3.397-1.203-0.077-3.417,0.243-4.796c0.514-2.215-0.966-3.578-0.58-5.954"/>
		<path clip-path="url(#SVGID_2_)" fill="#231F20" stroke="#999999" stroke-width="0.8202" d="M32.344,46.286
			c-1.984,0-3.871-0.451-5.585-1.264c0.872,5.174,3.042,8.838,5.585,8.838c2.542,0,4.712-3.664,5.585-8.838
			C36.214,45.835,34.327,46.286,32.344,46.286z"/>
		<path clip-path="url(#SVGID_2_)" fill="#BE1E2D" d="M35.897,55.915c-0.863,2.564-1.698,3.012-3.554,3.012
			c-1.856,0-2.467-0.672-3.167-3.012c-0.652-2.176,0-6.768,3.361-4.115C35.417,48.882,36.622,53.761,35.897,55.915z"/>
		<path clip-path="url(#SVGID_2_)" fill="#333333" stroke="#808080" stroke-width="0.6723" d="M41.629,0.414
			c-1.954,4.154,2.252,10.396,8.927,5.446c-1.596,6.243,4.579,6.452,8.596,4.554c-0.012,1.8,1.137,2.753,2.583,2.863
			c0.091,0.007,0.154-12.881,0.154-12.989"/>
		<path clip-path="url(#SVGID_2_)" fill="#333333" stroke="#808080" stroke-width="0.6723" d="M19.573,0.351
			c0.369,4.048-4.456,6.241-7.982,4.704c2.357,4.961-4.592,8.62-8.174,4.874c-1.232,1.29-2.409,2.075-3.495,2.457
			C0.387,12.773,0.085,0.979,0.387,0.019"/>
		<path clip-path="url(#SVGID_2_)" fill="none" stroke="#808080" stroke-width="0.6723" d="M0.354,6.04
			c1.858,0.167,3.531-1.253,3.834-3.673c3.192,0.997,5.365,1.13,8.327-2.143"/>
		<path clip-path="url(#SVGID_2_)" fill="none" stroke="#808080" stroke-width="0.6723" d="M53.87,0.25
			c-0.012,0.399,0.93,2.726,0.775,3.929c1.146-0.209,2.166,0.138,3.259-0.303c0.911,1.466,2.254,1.435,3.367,2.42"/>
		<path clip-path="url(#SVGID_2_)" fill="#F9EC31" d="M3.841,9.667c2.737,1.67,1.852,6.092,3.508,8.515
			c0.396-0.724,1.268-1.146,1.657-1.739c1.312,1.916,2.345,5.137,3.359,7.261C12.159,20.371,10.96,16.803,10,13.622
			c-0.494,0.509-1.392,0.889-1.853,1.608c-0.315-2.478-1.094-4.935-0.985-7.478"/>
	</g>
	<path fill="#F9EC31" d="M49.188,3.342c-2.335,1.609-4.248,3.729-5.701,6.118c1.503-0.084,3.186,0.194,4.611,0.082
		c-2.025,2.908-5.479,5.434-6.798,7.785c3.617-2.076,7.941-5.028,10.834-7.737c-2.216-0.086-3.649-1.145-5.645-1.381
		c1.322-1.435,4.714-3.857,4.716-3.858"/>
</g>
</svg>
