<?xml version="1.0" encoding="utf-8"?>
<!-- Generator: Adobe Illustrator 13.0.2, SVG Export Plug-In . SVG Version: 6.00 Build 14948)  -->
<!DOCTYPE svg PUBLIC "-//W3C//DTD SVG 1.0//EN" "http://www.w3.org/TR/2001/REC-SVG-20010904/DTD/svg10.dtd">
<svg version="1.0" id="Layer_1" xmlns="http://www.w3.org/2000/svg" xmlns:xlink="http://www.w3.org/1999/xlink" x="0px" y="0px"
	 width="62px" height="62px" viewBox="0 0 62 62" enable-background="new 0 0 62 62" xml:space="preserve">
<radialGradient id="SVGID_1_" cx="31.0098" cy="31.0068" r="30.6704" gradientTransform="matrix(1.0108 0 0 1.0107 -0.3428 -0.3391)" gradientUnits="userSpaceOnUse">
	<stop  offset="0" style="stop-color:#F1F2EF"/>
	<stop  offset="0.2124" style="stop-color:#EAEBEC"/>
	<stop  offset="0.5137" style="stop-color:#D8D9E2"/>
	<stop  offset="0.8666" style="stop-color:#B9BAD2"/>
	<stop  offset="1" style="stop-color:#ACADCB"/>
</radialGradient>
<rect y="0" fill="url(#SVGID_1_)" width="62" height="62"/>
<g>
	<circle fill="#F2F2F2" stroke="#515252" stroke-width="1.2215" cx="17.308" cy="19.694" r="11.298"/>
	<path fill="#231F20" stroke="#999999" stroke-width="0.2027" d="M19.156,20.229c-1.132,0.717-2.315,1.27-3.52,1.668
		c2.652,2.771,5.288,4.131,6.747,3.209c1.468-0.928,1.358-3.922-0.029-7.535C21.436,18.565,20.367,19.464,19.156,20.229z"/>
	<path fill="#231F20" stroke="#999999" stroke-width="0.2027" d="M13.996,17.307c0.438,0.821,0.125,1.844-0.698,2.28l0,0
		c-0.823,0.438-1.844,0.125-2.281-0.698l-0.244-0.459c-0.437-0.822-0.125-1.844,0.697-2.281l0,0
		c0.823-0.437,1.845-0.125,2.282,0.698L13.996,17.307z"/>
	<path fill="#231F20" stroke="#999999" stroke-width="0.2027" d="M21.014,12.925c0.422,0.831,0.089,1.846-0.742,2.268l0,0
		c-0.831,0.421-1.846,0.088-2.267-0.742l-0.234-0.464c-0.421-0.831-0.089-1.846,0.741-2.268l0,0c0.831-0.42,1.847-0.088,2.268,0.742
		L21.014,12.925z"/>
</g>
<g>
	<circle fill="#F2F2F2" stroke="#515252" stroke-width="1.2215" cx="47.141" cy="21.841" r="11.298"/>
	<path fill="#231F20" stroke="#999999" stroke-width="0.2027" d="M45.293,22.376c1.132,0.717,2.315,1.27,3.52,1.668
		c-2.652,2.771-5.289,4.13-6.747,3.208c-1.468-0.928-1.358-3.921,0.029-7.535C43.013,20.712,44.082,21.611,45.293,22.376z"/>
	<path fill="#231F20" stroke="#999999" stroke-width="0.2027" d="M50.452,19.454c-0.438,0.821-0.124,1.844,0.698,2.28l0,0
		c0.823,0.438,1.844,0.125,2.281-0.698l0.243-0.459c0.438-0.822,0.124-1.844-0.697-2.281l0,0c-0.823-0.436-1.846-0.124-2.281,0.698
		L50.452,19.454z"/>
	<path fill="#231F20" stroke="#999999" stroke-width="0.2027" d="M43.435,15.072c-0.422,0.83-0.089,1.846,0.742,2.268l0,0
		c0.83,0.421,1.847,0.087,2.267-0.743l0.235-0.464c0.42-0.83,0.089-1.846-0.742-2.267l0,0c-0.831-0.42-1.846-0.088-2.268,0.742
		L43.435,15.072z"/>
</g>
<g>
	<circle fill="#F2F2F2" stroke="#515252" stroke-width="1.44" cx="31.401" cy="38.67" r="13.319"/>
	<path fill="#231F20" stroke="#999999" stroke-width="0.239" d="M30.171,40.577c1.561-0.238,3.042-0.662,4.421-1.239
		c-0.216,4.517-1.509,7.766-3.52,8.075c-2.024,0.309-4.242-2.439-5.803-6.728C26.855,40.859,28.502,40.833,30.171,40.577z"/>
	<path fill="#231F20" stroke="#999999" stroke-width="0.239" d="M32.5,33.986c0.246,1.068,1.315,1.736,2.385,1.487l0,0
		c1.07-0.247,1.737-1.314,1.49-2.384l-0.14-0.598c-0.247-1.068-1.314-1.737-2.385-1.49l0,0c-1.07,0.249-1.737,1.316-1.49,2.387
		L32.5,33.986z"/>
	<path fill="#231F20" stroke="#999999" stroke-width="0.239" d="M22.868,35.517c0.268,1.065,1.349,1.711,2.414,1.443l0,0
		c1.065-0.268,1.711-1.351,1.443-2.414l-0.15-0.595c-0.268-1.063-1.349-1.711-2.414-1.444l0,0c-1.064,0.27-1.711,1.352-1.443,2.416
		L22.868,35.517z"/>
</g>
</svg>
