<?xml version="1.0" encoding="utf-8"?>
<!-- Generator: Adobe Illustrator 13.0.2, SVG Export Plug-In . SVG Version: 6.00 Build 14948)  -->
<!DOCTYPE svg PUBLIC "-//W3C//DTD SVG 1.0//EN" "http://www.w3.org/TR/2001/REC-SVG-20010904/DTD/svg10.dtd">
<svg version="1.0" id="Layer_1" xmlns="http://www.w3.org/2000/svg" xmlns:xlink="http://www.w3.org/1999/xlink" x="0px" y="0px"
	 width="62px" height="62px" viewBox="0 0 62 62" enable-background="new 0 0 62 62" xml:space="preserve">
<g>
	<rect y="-0.001" fill="#F5F19B" width="62" height="62.001"/>
	<g>
		
			<radialGradient id="SVGID_1_" cx="2851.042" cy="-32.0693" r="35.1394" gradientTransform="matrix(1.1356 0.0392 -0.0499 1.444 -3191.2021 -21.0836)" gradientUnits="userSpaceOnUse">
			<stop  offset="0" style="stop-color:#ACB9D2"/>
			<stop  offset="0.0127" style="stop-color:#AFBBD3"/>
			<stop  offset="0.169" style="stop-color:#CCD4E3"/>
			<stop  offset="0.3357" style="stop-color:#E2E7F0"/>
			<stop  offset="0.5154" style="stop-color:#F3F4F8"/>
			<stop  offset="0.7176" style="stop-color:#FCFCFD"/>
			<stop  offset="0.989" style="stop-color:#FFFFFF"/>
		</radialGradient>
		<path fill="url(#SVGID_1_)" stroke="#1A1A1A" stroke-width="2.6731" d="M52.093,31.896c-0.391,11.25-9.896,20.049-21.229,19.658
			c-11.332-0.392-20.207-9.828-19.818-21.078c0.389-11.247,9.895-20.047,21.228-19.656C43.606,11.213,52.481,20.648,52.093,31.896z"
			/>
		
			<ellipse transform="matrix(-0.9154 0.4026 -0.4026 -0.9154 54.798 42.7487)" fill="#E9E9E9" stroke="#1A1A1A" stroke-width="2.6731" cx="22.907" cy="27.133" rx="5.982" ry="6.46"/>
		<path fill="#231F20" d="M20.043,31.936c0.562,0.435,1.168,0.729,1.788,0.944c0.188-0.196,0.375-0.39,0.532-0.624
			c1.688-2.562,0.634-6.521-2.359-8.841c-0.423-0.328-0.857-0.59-1.301-0.818c-0.091,0.119-0.199,0.219-0.286,0.348
			C16.556,25.769,17.283,29.794,20.043,31.936z"/>
		<path fill="#E9E9E9" stroke="#1A1A1A" stroke-width="2.6731" d="M31.589,29.41c1.077,3.401,4.499,5.353,7.655,4.354
			c3.146-0.996,4.828-4.561,3.753-7.963c-1.075-3.4-4.503-5.352-7.65-4.354C32.193,22.443,30.513,26.008,31.589,29.41z"/>
		<line fill="none" stroke="#000000" stroke-width="2.6731" x1="30.319" y1="41.866" x2="34.859" y2="42.342"/>
		<path fill="#231F20" d="M33.21,32.299c0.512,0.494,1.081,0.853,1.675,1.132c0.207-0.173,0.416-0.344,0.595-0.562
			c1.956-2.364,1.334-6.414-1.393-9.044c-0.383-0.37-0.788-0.679-1.204-0.952c-0.104,0.108-0.223,0.196-0.322,0.314
			C30.407,25.791,30.695,29.874,33.21,32.299z"/>
		<line fill="none" stroke="#1A1A1A" stroke-width="2.6731" x1="45.058" y1="26.627" x2="35.973" y2="16.002"/>
		<line fill="none" stroke="#1A1A1A" stroke-width="2.6731" x1="14.195" y1="23.269" x2="26.01" y2="15.657"/>
	</g>
	<rect y="-0.001" fill="none" width="62" height="62.001"/>
</g>
</svg>
